<?xml version="1.0" encoding="iso-8859-1"?>
<!-- Generator: Adobe Illustrator 16.0.0, SVG Export Plug-In . SVG Version: 6.00 Build 0)  -->
<!DOCTYPE svg PUBLIC "-//W3C//DTD SVG 1.1//EN" "http://www.w3.org/Graphics/SVG/1.1/DTD/svg11.dtd">
<svg version="1.1" id="Capa_1" xmlns="http://www.w3.org/2000/svg" xmlns:xlink="http://www.w3.org/1999/xlink" x="0px" y="0px"
	 width="612px" height="612px" viewBox="0 0 612 612" style="enable-background:new 0 0 612 612;" xml:space="preserve">
<g>
	<g>
		<g id="group-25svg">
			<path id="path-1_17_" d="M470.601,612c-69.651,0-126.527-55.721-128.47-124.955L206.537,412.21
				c-19.833,11.94-42.179,18.201-65.157,18.201c-70.865,0-128.508-57.691-128.508-128.614c0-70.914,57.643-128.605,128.508-128.605
				c23.891,0,46.975,6.688,67.312,19.444l133.537-70.234C345.471,54.362,401.813,0,470.601,0
				c70.864,0,128.518,57.692,128.518,128.605c0,70.914-57.653,128.615-128.518,128.615c-23.909,0-46.984-6.708-67.283-19.463
				l-124.333,65.409l126.499,69.806c19.833-11.921,42.17-18.191,65.128-18.191c70.864,0,128.518,57.691,128.518,128.614
				C599.118,554.309,541.465,612,470.601,612z M205.925,380.67c2.417,0,4.834,0.603,7.038,1.815l150.961,83.3
				c5.077,2.806,8.019,8.368,7.455,14.154c-0.097,1.126-0.175,2.291-0.175,3.455c0,54.848,44.597,99.464,99.396,99.464
				c54.809,0,99.396-44.616,99.396-99.464c0-54.847-44.587-99.473-99.396-99.473c-19.998,0-39.413,6.213-56.158,17.959
				c-4.562,3.194-10.522,3.515-15.396,0.825l-150.962-83.3c-4.99-2.757-7.921-8.193-7.475-13.892
				c0.087-1.213,0.165-2.466,0.165-3.718c0-0.621-0.01-1.223-0.049-1.825c-0.311-5.698,2.728-11.047,7.766-13.697l149-78.378
				c4.912-2.583,10.872-2.155,15.377,1.136c17.026,12.455,36.985,19.046,57.73,19.046c54.809,0,99.396-44.625,99.396-99.473
				s-44.587-99.463-99.396-99.463c-54.799,0-99.396,44.616-99.396,99.463c0,0.622,0.039,1.223,0.078,1.835
				c0.311,5.688-2.729,11.037-7.767,13.697l-148.981,78.349c-4.912,2.582-10.853,2.155-15.347-1.126
				c-17.095-12.445-37.073-19.027-57.809-19.027c-54.809,0-99.385,44.616-99.385,99.463s44.577,99.473,99.385,99.473
				c20.017,0,39.432-6.213,56.188-17.959C200.082,381.554,202.994,380.67,205.925,380.67z"/>
		</g>
	</g>
	<g>
	</g>
	<g>
	</g>
	<g>
	</g>
	<g>
	</g>
	<g>
	</g>
	<g>
	</g>
	<g>
	</g>
	<g>
	</g>
	<g>
	</g>
	<g>
	</g>
	<g>
	</g>
	<g>
	</g>
	<g>
	</g>
	<g>
	</g>
	<g>
	</g>
</g>
<g>
</g>
<g>
</g>
<g>
</g>
<g>
</g>
<g>
</g>
<g>
</g>
<g>
</g>
<g>
</g>
<g>
</g>
<g>
</g>
<g>
</g>
<g>
</g>
<g>
</g>
<g>
</g>
<g>
</g>
</svg>
